<?xml version="1.0" encoding="iso-8859-1"?>
<!-- Generator: Adobe Illustrator 16.0.0, SVG Export Plug-In . SVG Version: 6.00 Build 0)  -->
<!DOCTYPE svg PUBLIC "-//W3C//DTD SVG 1.1//EN" "http://www.w3.org/Graphics/SVG/1.1/DTD/svg11.dtd">
<svg version="1.1" id="Capa_1" xmlns="http://www.w3.org/2000/svg" xmlns:xlink="http://www.w3.org/1999/xlink" x="0px" y="0px"
	 width="71.68px" height="71.68px" viewBox="0 0 71.68 71.68" style="enable-background:new 0 0 71.68 71.68;" xml:space="preserve"
	>
<g>
	<g>
		<g>
			<path d="M64.96,0H6.72C2.911,0,0,2.912,0,6.72v58.239c0,3.809,2.911,6.721,6.72,6.721h58.24c3.808,0,6.72-2.912,6.72-6.721V6.72
				C71.68,2.912,68.768,0,64.96,0z M63.84,52.641c0,2.463-2.017,4.479-4.48,4.479H38.08c-2.688,0-2.24-0.447-2.24,2.239
				c0,2.466-0.448,4.48-4.48,4.48H12.32c-2.464,0-4.479-2.018-4.479-4.48V12.32c0-2.464,2.016-4.479,4.479-4.479h47.04
				c2.466,0,4.48,2.016,4.48,4.479V52.641z"/>
			<rect x="13.44" y="17.024" width="44.8" height="4.48"/>
			<rect x="13.44" y="25.985" width="28.225" height="4.479"/>
			<rect x="13.44" y="34.944" width="37.185" height="4.48"/>
		</g>
	</g>
</g>
<g>
</g>
<g>
</g>
<g>
</g>
<g>
</g>
<g>
</g>
<g>
</g>
<g>
</g>
<g>
</g>
<g>
</g>
<g>
</g>
<g>
</g>
<g>
</g>
<g>
</g>
<g>
</g>
<g>
</g>
</svg>
