<?xml version="1.0" encoding="iso-8859-1"?>
<!-- Generator: Adobe Illustrator 16.0.0, SVG Export Plug-In . SVG Version: 6.00 Build 0)  -->
<!DOCTYPE svg PUBLIC "-//W3C//DTD SVG 1.1//EN" "http://www.w3.org/Graphics/SVG/1.1/DTD/svg11.dtd">
<svg version="1.1" id="Capa_1" xmlns="http://www.w3.org/2000/svg" xmlns:xlink="http://www.w3.org/1999/xlink" x="0px" y="0px"
	 width="36.25px" height="36.25px" viewBox="0 0 36.25 36.25" style="enable-background:new 0 0 36.25 36.25;" xml:space="preserve"
	>
<g>
	<path d="M33.943,4.792H2.307V27.79h31.636V4.792L33.943,4.792z M32.385,25.451h-5.841v-0.964c0-1.168-1.007-2.604-2.233-3.188
		l-2.822-1.343l-1.857,3.869l-0.922-2.505c-0.192,0.037-0.383,0.085-0.582,0.085c-0.199,0-0.392-0.048-0.581-0.085l-0.973,2.634
		L14.677,20l-2.734,1.299c-1.229,0.583-2.234,2.02-2.234,3.186v0.966H3.868v-19.1h28.521v19.1H32.385z M36.25,28.729v2.729H0v-2.729
		h16.307v0.584h3.638v-0.584H36.25z M12.729,16.625c0.349,1.353,1.199,2.524,2.397,3.293c0.021,0.229,0.197,0.474,0.476,0.618
		c0.381,0.197,0.807,0.137,0.949-0.139c0.143-0.274-0.052-0.657-0.432-0.855c-0.234-0.123-0.479-0.135-0.674-0.068
		c-1.047-0.66-1.803-1.664-2.146-2.829c0.349-0.107,0.604-0.43,0.604-0.813v-0.376c0.463,2.336,2.174,4.504,4.22,4.504
		s3.755-2.168,4.22-4.504v0.375c0,0.476,0.386,0.856,0.858,0.856s0.855-0.383,0.855-0.856v-1.784c0-0.302-0.158-0.568-0.395-0.721
		c-0.318-2.776-2.682-4.94-5.541-4.94c-2.861,0-5.223,2.164-5.543,4.94c-0.236,0.152-0.393,0.419-0.393,0.721v1.784
		C12.189,16.188,12.412,16.498,12.729,16.625z M18.125,8.934c2.514,0,4.596,1.854,4.968,4.267c-0.286,0.038-0.524,0.213-0.651,0.459
		c-0.252-2.372-2.086-3.627-4.314-3.627c-2.229,0-4.063,1.255-4.317,3.627c-0.092-0.179-0.238-0.323-0.426-0.402
		c-0.031-0.052-0.076-0.097-0.137-0.118c-0.027-0.011-0.053-0.011-0.077-0.013C13.57,10.75,15.639,8.934,18.125,8.934z"/>
</g>
<g>
</g>
<g>
</g>
<g>
</g>
<g>
</g>
<g>
</g>
<g>
</g>
<g>
</g>
<g>
</g>
<g>
</g>
<g>
</g>
<g>
</g>
<g>
</g>
<g>
</g>
<g>
</g>
<g>
</g>
</svg>
