<?xml version="1.0" encoding="iso-8859-1"?>
<!-- Generator: Adobe Illustrator 16.0.0, SVG Export Plug-In . SVG Version: 6.00 Build 0)  -->
<!DOCTYPE svg PUBLIC "-//W3C//DTD SVG 1.1//EN" "http://www.w3.org/Graphics/SVG/1.1/DTD/svg11.dtd">
<svg version="1.1" id="Capa_1" xmlns="http://www.w3.org/2000/svg" xmlns:xlink="http://www.w3.org/1999/xlink" x="0px" y="0px"
	 width="78.625px" height="78.625px" viewBox="0 0 78.625 78.625" style="enable-background:new 0 0 78.625 78.625;"
	 xml:space="preserve">
<g>
	<g>
		<g>
			<path d="M56.786,0H21.841c-2.911,0-5.376,2.464-5.376,5.376V73.25c0,2.912,2.465,5.375,5.376,5.375h34.944
				c2.91,0,5.375-2.463,5.375-5.375V5.376C62.161,2.464,59.697,0,56.786,0z M33.712,3.809h11.2c0.447,0,0.672,0.224,0.672,0.672
				c0,0.448-0.225,0.672-0.672,0.672h-11.2c-0.447,0-0.672-0.224-0.672-0.672C33.042,4.033,33.265,3.809,33.712,3.809z
				 M39.313,75.712c-1.567,0-2.688-1.119-2.688-2.688c0-1.568,1.12-2.465,2.688-2.465c1.567,0,2.688,1.121,2.688,2.688
				C42.001,74.593,40.88,75.712,39.313,75.712z M58.354,68.544H20.273V8.288h38.081V68.544z"/>
			<rect x="25.874" y="22.4" width="6.721" height="33.601"/>
			<rect x="35.954" y="35.616" width="6.719" height="20.161"/>
			<rect x="46.034" y="27.776" width="6.719" height="28.225"/>
			<rect x="25.874" y="58.018" width="26.879" height="2.239"/>
		</g>
	</g>
</g>
<g>
</g>
<g>
</g>
<g>
</g>
<g>
</g>
<g>
</g>
<g>
</g>
<g>
</g>
<g>
</g>
<g>
</g>
<g>
</g>
<g>
</g>
<g>
</g>
<g>
</g>
<g>
</g>
<g>
</g>
</svg>
