<?xml version="1.0" encoding="iso-8859-1"?>
<!-- Generator: Adobe Illustrator 16.0.0, SVG Export Plug-In . SVG Version: 6.00 Build 0)  -->
<!DOCTYPE svg PUBLIC "-//W3C//DTD SVG 1.1//EN" "http://www.w3.org/Graphics/SVG/1.1/DTD/svg11.dtd">
<svg version="1.1" id="Capa_1" xmlns="http://www.w3.org/2000/svg" xmlns:xlink="http://www.w3.org/1999/xlink" x="0px" y="0px"
	 width="59.6px" height="59.6px" viewBox="0 0 59.6 59.6" style="enable-background:new 0 0 59.6 59.6;" xml:space="preserve">
<g>
	<g>
		<path d="M20.626,34.606c-3.104,0-2.675-2.432-4.339-2.432c-0.748,0-1.29,0.522-1.29,1.271c0,1.457,1.738,3.402,5.629,3.402
			c3.702,0,5.533-1.813,5.533-4.246c0-1.568-0.709-3.234-3.515-3.868l-2.563-0.581c-0.972-0.224-2.094-0.521-2.094-1.458
			c0-0.936,0.786-1.588,2.206-1.588c2.862,0,2.6,1.999,4.021,1.999c0.746,0,1.403-0.448,1.403-1.216c0-1.793-2.825-3.14-5.219-3.14
			c-2.6,0-5.366,1.122-5.366,4.111c0,1.44,0.505,2.975,3.292,3.684l3.459,0.879c1.047,0.262,1.309,0.861,1.309,1.401
			C23.094,33.725,22.215,34.606,20.626,34.606z"/>
		<path d="M30.271,36.53h7.349c0.896,0,1.553-0.262,1.553-1.232c0-0.973-0.655-1.234-1.553-1.234h-6.077v-3.254h5.199
			c0.803,0,1.439-0.225,1.439-1.177c0-0.953-0.638-1.178-1.439-1.178h-5.199v-2.917h5.927c0.898,0,1.554-0.261,1.554-1.233
			c0-0.974-0.654-1.234-1.554-1.234h-7.198c-1.084,0-1.793,0.43-1.793,1.795v9.873C28.478,36.1,29.187,36.53,30.271,36.53z"/>
		<path d="M47.414,36.848c4.602,0,6.809-3.42,6.809-7.217c0-3.946-2.394-6.88-6.809-6.88c-4.412,0-6.805,2.934-6.805,6.88
			C40.609,33.707,42.592,36.848,47.414,36.848z M47.414,25.22c2.506,0,3.74,1.83,3.74,4.411c0,2.581-0.953,4.749-3.74,4.749
			c-2.878,0-3.738-2.168-3.738-4.749C43.676,27.05,44.91,25.22,47.414,25.22z"/>
		<path d="M0,29.8l9.871,13.225H59.6v-26.45H9.871L0,29.8z M58.6,17.575v24.449H10.373L1.248,29.799l9.125-12.225L58.6,17.575
			L58.6,17.575z"/>
		<path d="M8.307,32.7c1.6,0,2.9-1.301,2.9-2.9s-1.301-2.9-2.9-2.9c-1.599,0-2.9,1.301-2.9,2.9S6.707,32.7,8.307,32.7z M8.307,27.9
			c1.048,0,1.9,0.853,1.9,1.9c0,1.046-0.853,1.9-1.9,1.9c-1.047,0-1.9-0.854-1.9-1.9C6.407,28.753,7.259,27.9,8.307,27.9z"/>
	</g>
</g>
<g>
</g>
<g>
</g>
<g>
</g>
<g>
</g>
<g>
</g>
<g>
</g>
<g>
</g>
<g>
</g>
<g>
</g>
<g>
</g>
<g>
</g>
<g>
</g>
<g>
</g>
<g>
</g>
<g>
</g>
</svg>
