<?xml version="1.0" encoding="iso-8859-1"?>
<!-- Generator: Adobe Illustrator 16.0.0, SVG Export Plug-In . SVG Version: 6.00 Build 0)  -->
<!DOCTYPE svg PUBLIC "-//W3C//DTD SVG 1.1//EN" "http://www.w3.org/Graphics/SVG/1.1/DTD/svg11.dtd">
<svg version="1.1" id="Capa_1" xmlns="http://www.w3.org/2000/svg" xmlns:xlink="http://www.w3.org/1999/xlink" x="0px" y="0px"
	 width="34.306px" height="34.306px" viewBox="0 0 34.306 34.306" style="enable-background:new 0 0 34.306 34.306;"
	 xml:space="preserve">
<g>
	<g>
		<path d="M8.553,8.554C9.147,7.96,9.149,6.996,8.555,6.402L2.597,0.444c-0.595-0.593-1.56-0.593-2.151,0.001
			c-0.594,0.594-0.595,1.557-0.001,2.151l5.958,5.958C6.997,9.149,7.961,9.148,8.553,8.554z"/>
		<path d="M23.722,15.208c-1.176,0-1.861,1.121-1.861,2.618c0,1.511,0.709,2.573,1.876,2.573c1.177,0,1.852-1.12,1.852-2.618
			C25.588,16.397,24.924,15.208,23.722,15.208z"/>
		<path d="M33.75,16.897L18.92,2.066c-0.742-0.741-2.201-1.253-3.244-1.137L5.552,2.053l3.677,3.675v0.001
			c0.464,0.127,0.905,0.36,1.271,0.724c1.117,1.117,1.117,2.929,0,4.045c-1.117,1.119-2.93,1.117-4.046,0
			C6.091,10.134,5.855,9.693,5.73,9.229c-0.001,0-0.001,0-0.001,0L2.053,5.553L0.929,15.676c-0.115,1.042,0.396,2.502,1.137,3.243
			l14.831,14.832c0.742,0.74,1.956,0.74,2.696,0L33.75,19.593C34.492,18.852,34.492,17.638,33.75,16.897z M9.972,21.771
			c-0.878,0-1.748-0.229-2.182-0.47l0.354-1.44c0.469,0.24,1.19,0.481,1.933,0.481c0.801,0,1.224-0.332,1.224-0.836
			c0-0.48-0.366-0.753-1.292-1.086c-1.281-0.445-2.115-1.154-2.115-2.275c0-1.315,1.096-2.321,2.915-2.321
			c0.868,0,1.509,0.184,1.966,0.389l-0.389,1.407c-0.309-0.149-0.856-0.367-1.612-0.367c-0.754,0-1.119,0.344-1.119,0.744
			c0,0.492,0.435,0.708,1.429,1.087c1.36,0.502,2.002,1.211,2.002,2.297C13.085,20.674,12.088,21.771,9.972,21.771z M19.181,21.656
			h-4.917v-7.707h4.757v1.43h-3.007v1.601h2.834v1.417h-2.834v1.829h3.167V21.656z M23.642,21.782c-2.285,0-3.622-1.727-3.622-3.921
			c0-2.31,1.475-4.037,3.75-4.037c2.366,0,3.657,1.772,3.657,3.899C27.427,20.25,25.897,21.782,23.642,21.782z"/>
	</g>
</g>
<g>
</g>
<g>
</g>
<g>
</g>
<g>
</g>
<g>
</g>
<g>
</g>
<g>
</g>
<g>
</g>
<g>
</g>
<g>
</g>
<g>
</g>
<g>
</g>
<g>
</g>
<g>
</g>
<g>
</g>
</svg>
