<svg xmlns="http://www.w3.org/2000/svg" xmlns:xlink="http://www.w3.org/1999/xlink" id="Capa_1" x="0" y="0" version="1.1" viewBox="0 0 512 512" xml:space="preserve" style="enable-background:new 0 0 512 512"><polygon style="fill:#acb7d0" points="324.267 469.333 187.733 469.333 213.333 384 298.667 384"/><polygon style="fill:#a0aecb" points="308.907 418.133 298.667 384 213.333 384 203.093 418.133"/><path style="fill:#c2cde7" d="M25.6,42.667h460.8c9.429,0,17.067,7.637,17.067,17.067v307.2c0,9.429-7.637,17.067-17.067,17.067	H25.6c-9.429,0-17.067-7.637-17.067-17.067v-307.2C8.533,50.304,16.171,42.667,25.6,42.667z"/><rect style="fill:#c5e4fa" width="494.933" height="238.933" x="8.533" y="76.8"/><g><polygon style="fill:#e3f2ff" points="366.933 315.733 494.933 187.733 494.933 76.8 477.867 76.8 238.933 315.733"/><polygon style="fill:#e3f2ff" points="153.6 315.733 204.8 315.733 443.733 76.8 392.533 76.8"/><polygon style="fill:#e3f2ff" points="119.467 315.733 358.4 76.8 315.733 76.8 76.8 315.733"/></g><path style="fill:#cfd9ed" d="M34.133,349.867L34.133,349.867c0-4.71,3.823-8.533,8.533-8.533h426.667	c4.71,0,8.533,3.823,8.533,8.533l0,0c0,4.71-3.823,8.533-8.533,8.533H42.667C37.956,358.4,34.133,354.577,34.133,349.867z"/><g><polygon style="fill:#fff8f8" points="64 128 74.581 147.285 93.867 157.867 74.581 168.448 64 187.733 53.419 168.448 34.133 157.867 53.419 147.285"/><polygon style="fill:#fff8f8" points="310.784 103.765 318.037 117.163 331.435 124.416 318.037 131.755 310.784 145.067 303.445 131.755 290.133 124.416 303.445 117.163"/><polygon style="fill:#fff8f8" points="73.813 244.907 78.763 254.037 87.893 258.987 78.763 264.021 73.813 273.067 68.779 264.021 59.733 258.987 68.779 254.037"/></g><g><path style="fill:#8d6c9f" d="M179.2,256h-17.067c-4.71,0-8.533,3.823-8.533,8.533c0,4.71,3.823,8.533,8.533,8.533H179.2 c4.71,0,8.533-3.823,8.533-8.533C187.733,259.823,183.91,256,179.2,256z"/><path style="fill:#8d6c9f" d="M179.2,119.467h-17.067c-4.71,0-8.533,3.823-8.533,8.533c0,4.71,3.823,8.533,8.533,8.533H179.2 c4.71,0,8.533-3.823,8.533-8.533C187.733,123.29,183.91,119.467,179.2,119.467z"/><path style="fill:#8d6c9f" d="M179.2,153.6h-17.067c-4.71,0-8.533,3.823-8.533,8.533s3.823,8.533,8.533,8.533H179.2 c4.71,0,8.533-3.823,8.533-8.533S183.91,153.6,179.2,153.6z"/><path style="fill:#8d6c9f" d="M179.2,187.733h-17.067c-4.71,0-8.533,3.823-8.533,8.533s3.823,8.533,8.533,8.533H179.2 c4.71,0,8.533-3.823,8.533-8.533S183.91,187.733,179.2,187.733z"/><path style="fill:#8d6c9f" d="M179.2,221.867h-17.067c-4.71,0-8.533,3.823-8.533,8.533s3.823,8.533,8.533,8.533H179.2 c4.71,0,8.533-3.823,8.533-8.533S183.91,221.867,179.2,221.867z"/><path style="fill:#8d6c9f" d="M230.4,256h-17.067c-4.71,0-8.533,3.823-8.533,8.533c0,4.71,3.823,8.533,8.533,8.533H230.4 c4.71,0,8.533-3.823,8.533-8.533C238.933,259.823,235.11,256,230.4,256z"/><path style="fill:#8d6c9f" d="M230.4,153.6h-17.067c-4.71,0-8.533,3.823-8.533,8.533s3.823,8.533,8.533,8.533H230.4 c4.71,0,8.533-3.823,8.533-8.533S235.11,153.6,230.4,153.6z"/><path style="fill:#8d6c9f" d="M230.4,187.733h-17.067c-4.71,0-8.533,3.823-8.533,8.533s3.823,8.533,8.533,8.533H230.4 c4.71,0,8.533-3.823,8.533-8.533S235.11,187.733,230.4,187.733z"/><path style="fill:#8d6c9f" d="M230.4,221.867h-17.067c-4.71,0-8.533,3.823-8.533,8.533s3.823,8.533,8.533,8.533H230.4 c4.71,0,8.533-3.823,8.533-8.533S235.11,221.867,230.4,221.867z"/><path style="fill:#8d6c9f" d="M315.733,170.667H332.8c4.71,0,8.533-3.823,8.533-8.533s-3.823-8.533-8.533-8.533h-17.067 c-4.71,0-8.533,3.823-8.533,8.533S311.023,170.667,315.733,170.667z"/><path style="fill:#8d6c9f" d="M315.733,204.8H332.8c4.71,0,8.533-3.823,8.533-8.533s-3.823-8.533-8.533-8.533h-17.067 c-4.71,0-8.533,3.823-8.533,8.533S311.023,204.8,315.733,204.8z"/><path style="fill:#8d6c9f" d="M315.733,238.933H332.8c4.71,0,8.533-3.823,8.533-8.533s-3.823-8.533-8.533-8.533h-17.067 c-4.71,0-8.533,3.823-8.533,8.533S311.023,238.933,315.733,238.933z"/><path style="fill:#8d6c9f" d="M281.6,256h-17.067c-4.71,0-8.533,3.823-8.533,8.533c0,4.71,3.823,8.533,8.533,8.533H281.6 c4.71,0,8.533-3.823,8.533-8.533C290.133,259.823,286.31,256,281.6,256z"/><path style="fill:#8d6c9f" d="M366.933,273.067H384c4.71,0,8.533-3.823,8.533-8.533c0-4.71-3.823-8.533-8.533-8.533h-17.067 c-4.71,0-8.533,3.823-8.533,8.533C358.4,269.244,362.223,273.067,366.933,273.067z"/><path style="fill:#8d6c9f" d="M281.6,187.733h-17.067c-4.71,0-8.533,3.823-8.533,8.533s3.823,8.533,8.533,8.533H281.6 c4.71,0,8.533-3.823,8.533-8.533S286.31,187.733,281.6,187.733z"/><path style="fill:#8d6c9f" d="M281.6,221.867h-17.067c-4.71,0-8.533,3.823-8.533,8.533s3.823,8.533,8.533,8.533H281.6 c4.71,0,8.533-3.823,8.533-8.533S286.31,221.867,281.6,221.867z"/><path style="fill:#8d6c9f" d="M128,256h-17.067c-4.71,0-8.533,3.823-8.533,8.533c0,4.71,3.823,8.533,8.533,8.533H128 c4.71,0,8.533-3.823,8.533-8.533C136.533,259.823,132.71,256,128,256z"/><path style="fill:#8d6c9f" d="M128,221.867h-17.067c-4.71,0-8.533,3.823-8.533,8.533s3.823,8.533,8.533,8.533H128 c4.71,0,8.533-3.823,8.533-8.533S132.71,221.867,128,221.867z"/><path style="fill:#8d6c9f" d="M486.4,34.133H25.6c-14.14,0-25.6,11.46-25.6,25.6v307.2c0,14.14,11.46,25.6,25.6,25.6h176.299 l-20.48,68.267h-44.885c-4.71,0-8.533,3.823-8.533,8.533c0,4.71,3.823,8.533,8.533,8.533h238.933c4.71,0,8.533-3.823,8.533-8.533 c0-4.71-3.823-8.533-8.533-8.533h-44.885l-20.48-68.267H486.4c14.14,0,25.6-11.46,25.6-25.6v-307.2 C512,45.594,500.54,34.133,486.4,34.133z M25.6,51.2h460.8c4.71,0,8.533,3.823,8.533,8.533v8.533H17.067v-8.533 C17.067,55.023,20.89,51.2,25.6,51.2z M312.832,460.8H199.168l20.48-68.267h72.619L312.832,460.8z M486.4,375.467H25.6 c-4.71,0-8.533-3.823-8.533-8.533v-42.667h196.949c4.71,0,8.533-3.823,8.533-8.533c0-4.71-3.823-8.533-8.533-8.533H17.067V85.333 h477.867V307.2H299.349c-4.71,0-8.533,3.823-8.533,8.533c0,4.71,3.823,8.533,8.533,8.533h195.584v42.667 C494.933,371.644,491.11,375.467,486.4,375.467z"/><path style="fill:#8d6c9f" d="M264.533,307.2h-16.384c-4.71,0-8.533,3.823-8.533,8.533c0,4.71,3.823,8.533,8.533,8.533h16.384 c4.71,0,8.533-3.823,8.533-8.533C273.067,311.023,269.244,307.2,264.533,307.2z"/><path style="fill:#8d6c9f" d="M315.733,273.067H332.8c4.71,0,8.533-3.823,8.533-8.533c0-4.71-3.823-8.533-8.533-8.533h-17.067 c-4.71,0-8.533,3.823-8.533,8.533C307.2,269.244,311.023,273.067,315.733,273.067z"/></g></svg>